{
  "accessors": [
    {
      "bufferView": 2,
      "componentType": 5126,
      "count": 6410,
      "max": [
        0.29060792922973633,
        0.23285162448883057,
        0.27068594098091125
      ],
      "min": [
        -0.29060792922973633,
        -0.062472280114889145,
        -0.24647913873195648
      ],
      "type": "VEC3"
    },
    {
      "bufferView": 2,
      "byteOffset": 76920,
      "componentType": 5126,
      "count": 6410,
      "max": [
        0.9955424070358276,
        1.0,
        1.0
      ],
      "min": [
        -0.9938556551933289,
        -0.9987955093383789,
        -1.0
      ],
      "type": "VEC3"
    },
    {
      "bufferView": 1,
      "componentType": 5126,
      "count": 6410,
      "max": [
        0.9900000095367432,
        1.0
      ],
      "min": [
        0.0,
        0.03070080280303955
      ],
      "type": "VEC2"
    },
    {
      "bufferView": 0,
      "componentType": 5125,
      "count": 10374,
      "type": "SCALAR"
    },
    {
      "bufferView": 2,
      "byteOffset": 153840,
      "componentType": 5126,
      "count": 91,
      "max": [
        0.05308857560157776,
        0.090488962829113,
        0.20545706152915955
      ],
      "min": [
        -0.06454652547836304,
        0.01275910809636116,
        0.20545706152915955
      ],
      "type": "VEC3"
    },
    {
      "bufferView": 2,
      "byteOffset": 154932,
      "componentType": 5126,
      "count": 91,
      "max": [
        0.0,
        5.076038860352128e-07,
        1.0
      ],
      "min": [
        0.0,
        -1.9853791854984593e-06,
        1.0
      ],
      "type": "VEC3"
    },
    {
      "bufferView": 1,
      "byteOffset": 51280,
      "componentType": 5126,
      "count": 91,
      "max": [
        0.6411190629005432,
        0.5510381460189819
      ],
      "min": [
        0.4080965518951416,
        0.4397428631782532
      ],
      "type": "VEC2"
    },
    {
      "bufferView": 0,
      "byteOffset": 41496,
      "componentType": 5125,
      "count": 255,
      "type": "SCALAR"
    },
    {
      "bufferView": 2,
      "byteOffset": 156024,
      "componentType": 5126,
      "count": 43,
      "max": [
        0.033617764711380005,
        0.08842059969902039,
        0.20545706152915955
      ],
      "min": [
        -0.06077524274587631,
        0.06126806139945984,
        0.20545706152915955
      ],
      "type": "VEC3"
    },
    {
      "bufferView": 2,
      "byteOffset": 156540,
      "componentType": 5126,
      "count": 43,
      "max": [
        0.0,
        0.0,
        1.0
      ],
      "min": [
        0.0,
        -9.80594450084027e-07,
        1.0
      ],
      "type": "VEC3"
    },
    {
      "bufferView": 1,
      "byteOffset": 52008,
      "componentType": 5126,
      "count": 43,
      "max": [
        0.6042157411575317,
        0.48096710443496704
      ],
      "min": [
        0.416667640209198,
        0.4427354335784912
      ],
      "type": "VEC2"
    },
    {
      "bufferView": 0,
      "byteOffset": 42516,
      "componentType": 5125,
      "count": 117,
      "type": "SCALAR"
    }
  ],
  "asset": {
    "extras": {
      "author": "pauldesmondparker (https://sketchfab.com/pauldesmondparker)",
      "license": "CC-BY-4.0 (http://creativecommons.org/licenses/by/4.0/)",
      "source": "https://sketchfab.com/3d-models/ferris-the-crab-e9bc16e19d1c4880b30d2aa5fd174887",
      "title": "Ferris the crab"
    },
    "generator": "Sketchfab-12.68.0",
    "version": "2.0"
  },
  "bufferViews": [
    {
      "buffer": 0,
      "byteLength": 42984,
      "name": "floatBufferViews",
      "target": 34963
    },
    {
      "buffer": 0,
      "byteLength": 52352,
      "byteOffset": 42984,
      "byteStride": 8,
      "name": "floatBufferViews",
      "target": 34962
    },
    {
      "buffer": 0,
      "byteLength": 157056,
      "byteOffset": 95336,
      "byteStride": 12,
      "name": "floatBufferViews",
      "target": 34962
    }
  ],
  "buffers": [
    {
      "byteLength": 252392,
      "uri": "scene.bin"
    }
  ],
  "materials": [
    {
      "doubleSided": true,
      "name": "skin",
      "pbrMetallicRoughness": {
        "baseColorFactor": [
          0.904661,
          0.0722719,
          0.000607055,
          1.0
        ],
        "metallicFactor": 0.0,
        "roughnessFactor": 0.5
      }
    },
    {
      "doubleSided": true,
      "name": "eye_black",
      "pbrMetallicRoughness": {
        "baseColorFactor": [
          0.0,
          0.0,
          0.0,
          1.0
        ],
        "metallicFactor": 0.0,
        "roughnessFactor": 0.5
      }
    },
    {
      "doubleSided": true,
      "name": "eye_white",
      "pbrMetallicRoughness": {
        "metallicFactor": 0.0,
        "roughnessFactor": 0.5
      }
    }
  ],
  "meshes": [
    {
      "name": "Object_0",
      "primitives": [
        {
          "attributes": {
            "NORMAL": 1,
            "POSITION": 0,
            "TEXCOORD_0": 2
          },
          "indices": 3,
          "material": 0,
          "mode": 4
        }
      ]
    },
    {
      "name": "Object_1",
      "primitives": [
        {
          "attributes": {
            "NORMAL": 5,
            "POSITION": 4,
            "TEXCOORD_0": 6
          },
          "indices": 7,
          "material": 1,
          "mode": 4
        }
      ]
    },
    {
      "name": "Object_2",
      "primitives": [
        {
          "attributes": {
            "NORMAL": 9,
            "POSITION": 8,
            "TEXCOORD_0": 10
          },
          "indices": 11,
          "material": 2,
          "mode": 4
        }
      ]
    }
  ],
  "nodes": [
    {
      "children": [
        1
      ],
      "matrix": [
        1.0,
        0.0,
        0.0,
        0.0,
        0.0,
        2.220446049250313e-16,
        -1.0,
        0.0,
        0.0,
        1.0,
        2.220446049250313e-16,
        0.0,
        0.0,
        0.0,
        0.0,
        1.0
      ],
      "name": "Sketchfab_model"
    },
    {
      "children": [
        2
      ],
      "name": "root"
    },
    {
      "children": [
        3
      ],
      "matrix": [
        1.0,
        0.0,
        0.0,
        0.0,
        0.0,
        2.220446049250313e-16,
        1.0,
        0.0,
        0.0,
        -1.0,
        2.220446049250313e-16,
        0.0,
        0.0,
        0.0,
        0.0,
        1.0
      ],
      "name": "GLTF_SceneRootNode"
    },
    {
      "children": [
        4,
        5,
        6
      ],
      "matrix": [
        -2.99999999999984,
        0.0,
        9.775241096576532e-07,
        0.0,
        0.0,
        3.0,
        0.0,
        0.0,
        -9.775241096576532e-07,
        0.0,
        -2.99999999999984,
        0.0,
        0.00016525996034033597,
        0.18741680681705475,
        0.0,
        1.0
      ],
      "name": "ferris_0"
    },
    {
      "mesh": 0,
      "name": "Object_4"
    },
    {
      "mesh": 1,
      "name": "Object_5"
    },
    {
      "mesh": 2,
      "name": "Object_6"
    }
  ],
  "scene": 0,
  "scenes": [
    {
      "name": "Sketchfab_Scene",
      "nodes": [
        0
      ]
    }
  ]
}
